<?xml version="1.0" encoding="utf-8"?>
<!-- Generator: Adobe Illustrator 23.0.2, SVG Export Plug-In . SVG Version: 6.00 Build 0)  -->
<svg version="1.1" id="Layer_1" xmlns="http://www.w3.org/2000/svg" xmlns:xlink="http://www.w3.org/1999/xlink" x="0px" y="0px"
	 viewBox="0 0 613.6 88.7" style="enable-background:new 0 0 613.6 88.7;" xml:space="preserve">
<style type="text/css">
	.st0{fill:#FFFFFF;}
</style>
<g>
	<path class="st0" d="M13.7,73c0-0.8-0.2-1.4-0.7-1.8c-0.5-0.4-1.2-0.6-2.2-0.6c-1.3,0-2.4,0.8-2.4,1.8c0,1.5,1.8,2,3.3,2.4
		C15,75.6,20,76,20,81.4c0,4.3-4.2,6.3-8.9,6.3c-4.7,0-8.8-1.4-8.9-6.9h5.6c0,1.9,1.4,2.9,3.4,2.9c1.3,0,2.9-0.7,2.9-2
		c0-2.7-4.1-2.2-8.5-4.1c-2-0.9-3.1-2.7-3.1-4.9c0.2-4.8,4.4-6.1,8.7-6.1c4.2,0,8.5,1.5,8.1,6.4H13.7z"/>
	<path class="st0" d="M31.9,78.2c0-0.7-0.1-1.3-0.4-1.7c-0.3-0.4-0.8-0.6-1.7-0.6c-1.9,0-2,2.9-2,4.4s0.1,4.4,2,4.4
		c1.8-0.1,2.1-1.6,2.1-2.8h5.3c0,2-0.9,3.4-2.2,4.4c-1.3,1-3.1,1.4-5,1.5c-5.3,0-7.7-2.6-7.7-7.4c0-5.1,3.5-7.4,7.7-7.4
		c3.6-0.1,6.9,1.3,7.2,5.3H31.9z"/>
	<path class="st0" d="M40.1,87.3V67.1h5.3v7.7c1.2-1.4,2.6-2,4.4-2c3,0,5.3,2,5.3,5.1v9.4h-5.3V79c-0.1-1.4-0.4-2.9-2-2.9
		c-2.6,0-2.3,2.9-2.3,3.1v8.1H40.1z"/>
	<path class="st0" d="M74.5,80.3c0,5.2-3.8,7.4-8.2,7.4s-8.2-2.3-8.2-7.4c0-5.2,3.8-7.4,8.2-7.4S74.5,75.1,74.5,80.3z M66.3,84.6
		c2.2,0,2.7-2.4,2.7-4.4c0-2-0.5-4.4-2.7-4.4c-2.2,0-2.7,2.4-2.7,4.4C63.6,82.3,64.1,84.6,66.3,84.6z"/>
	<path class="st0" d="M93.2,80.3c0,5.2-3.8,7.4-8.2,7.4s-8.2-2.3-8.2-7.4c0-5.2,3.8-7.4,8.2-7.4S93.2,75.1,93.2,80.3z M85,84.6
		c2.2,0,2.7-2.4,2.7-4.4c0-2-0.5-4.4-2.7-4.4c-2.2,0-2.7,2.4-2.7,4.4C82.3,82.3,82.8,84.6,85,84.6z"/>
	<path class="st0" d="M96.3,87.3V67.1h5.3v20.2H96.3z"/>
	<path class="st0" d="M130.5,80.3c0,5.2-3.8,7.4-8.2,7.4s-8.2-2.3-8.2-7.4c0-5.2,3.8-7.4,8.2-7.4S130.5,75.1,130.5,80.3z
		 M122.3,84.6c2.2,0,2.7-2.4,2.7-4.4c0-2-0.5-4.4-2.7-4.4c-2.2,0-2.7,2.4-2.7,4.4C119.6,82.3,120.1,84.6,122.3,84.6z"/>
	<path class="st0" d="M134.8,87.3V76.6h-2.6v-3.4h2.7c-0.2-4.7,1.1-6.5,5.9-6.5c1,0,1.9,0.1,2.9,0.3v3.3c-0.5-0.1-1-0.3-1.5-0.3
		c-1.8,0-2,1.6-2,3.1h3.3v3.4h-3.3v10.7H134.8z"/>
	<path class="st0" d="M155.3,87.3V67.1h15.4V71h-9.8v4.2h9v3.9h-9v4.3h9.8v3.9H155.3z"/>
	<path class="st0" d="M183.9,85.2h-0.1c-0.7,1.7-2.7,2.5-4.7,2.5c-4,0-5.9-3.9-5.9-7.4c0-3.7,1.9-7.5,6-7.5c1.8,0,3.5,0.6,4.6,2.1
		h0.1v-7.8h5.3v20.2H184L183.9,85.2z M178.7,80.3c0,1.8,0.4,4.4,2.6,4.4c2.2,0,2.6-2.5,2.6-4.4c0-1.9-0.3-4.4-2.6-4.4
		C179,75.9,178.7,78.4,178.7,80.3z"/>
	<path class="st0" d="M202.3,85.8c-1.2,1.4-2.6,2-4.4,2c-3,0-5.3-2-5.3-5.1v-9.4h5.3v8.3c0.1,1.4,0.4,2.9,2,2.9
		c2.6,0,2.3-2.9,2.3-3.1v-8.1h5.3v10.4c0,1.3,0,2.1,0.2,3.6h-5.4L202.3,85.8z"/>
	<path class="st0" d="M220.2,78.2c0-0.7-0.1-1.3-0.4-1.7c-0.3-0.4-0.8-0.6-1.7-0.6c-1.9,0-2,2.9-2,4.4s0.1,4.4,2,4.4
		c1.8-0.1,2.1-1.6,2.1-2.8h5.3c0,2-0.9,3.4-2.2,4.4c-1.3,1-3.1,1.4-5,1.5c-5.3,0-7.7-2.6-7.7-7.4c0-5.1,3.5-7.4,7.7-7.4
		c3.6-0.1,6.9,1.3,7.2,5.3H220.2z"/>
	<path class="st0" d="M237.1,87.3c-0.1-0.4-0.1-0.9-0.1-1.9h-0.1c-0.6,1-1.8,2.3-4.5,2.3c-3.3,0-5.1-1.8-5-4.7
		c0.1-3.4,3.2-4.8,7.8-4.8h1.7c0-1.2,0.3-3-1.8-2.9c-1.3,0.1-1.7,1.3-1.7,2.2h-5c0-2,1-3.1,2.4-3.8c1.5-0.7,3.3-0.8,4.8-0.8
		c2.9,0,6.3,1.2,6.2,4.4v7.2c0,0.6,0.1,1.2,0.3,2.9H237.1z M234.4,84.6c2.3,0,2.5-2.2,2.5-4c-1.1,0-2.2-0.1-2.9,0.3
		c-0.8,0.4-1.4,0.9-1.4,1.9C232.6,83.8,233.4,84.6,234.4,84.6z"/>
	<path class="st0" d="M246.7,73.2v-2.1l5.3-2v4.1h3.1v3.4h-3.1v5.6c0,0.4-0.2,2.2,1,2.2c0.7,0,1.4,0,2-0.1v3.2
		c-1.2,0.2-2.1,0.3-2.9,0.3c-3.6,0-5.8-0.5-5.5-4.8v-6.3H244v-3.4H246.7z"/>
	<path class="st0" d="M258.1,70.8v-3.8h5.4v3.8H258.1z M258.1,87.3V73.2h5.3v14.1H258.1z"/>
	<path class="st0" d="M282.9,80.3c0,5.2-3.8,7.4-8.2,7.4s-8.2-2.3-8.2-7.4c0-5.2,3.8-7.4,8.2-7.4S282.9,75.1,282.9,80.3z
		 M274.7,84.6c2.2,0,2.7-2.4,2.7-4.4c0-2-0.5-4.4-2.7-4.4c-2.2,0-2.7,2.4-2.7,4.4C272,82.3,272.5,84.6,274.7,84.6z"/>
	<path class="st0" d="M291.2,74.8c1.2-1.4,2.6-2,4.4-2c3,0,5.3,2,5.3,5.1v9.4h-5.3V79c-0.1-1.4-0.4-2.9-2-2.9
		c-2.6,0-2.3,2.9-2.3,3.1v8.1h-5.3V76.9c0-1.3,0-2.1-0.2-3.6h5.4L291.2,74.8z"/>
</g>
<path class="st0" d="M1,1.7c0,0,0,0,0,1.1c4.3,0.7,4.2,0.7,4.2,13.3v15.3C5.2,44,5.2,44,1,44.7c0,1.1,0,1.1,0,1.1s4.1-0.3,7.3-0.3
	c3.2,0,7.2,0.3,7.2,0.3s0,0,0-1.1c-4.2-0.7-4.2-0.7-4.2-13.3V16.1c0-12.6,0-12.6,4.2-13.3c0-1.1,0-1.1,0-1.1s-4,0.2-7.2,0.2
	C5,1.9,1,1.7,1,1.7z M155.6,11.2c0.1-8,9.6-10,16.6-6.1c1.7,0.8,2.5,5.3,2.5,5.3h1.3l-0.3-7.8c0,0-5.6-1.8-10.2-1.8
	c-8.6,0-15.2,6.1-15.2,12.5c0,14.5,22.4,10.4,22.4,21.7c0,9-12,12.4-19.7,6.3c-1.6-1.3-1.9-3.8-2.2-5.5c-1.4,0-1.4,0-1.4,0l0.5,8.2
	c0,0,5.9,2.5,12.1,2.5c10.7-0.1,16.1-7.3,16.1-13.9C178.1,18.3,155.5,22.3,155.6,11.2z M200.8,11.3c5.8,0,7.1,0.7,8,4.8h1l-0.3-6.8
	c0,0-12.7,0.2-15.4,0.2c-2.8,0-15.2-0.2-15.2-0.2l-0.6,6.8h0.9c1.1-4.1,2.3-4.8,8.1-4.8h4.1v28.2c0,4.3-0.1,5-4.1,5.3v1
	c0,0,4-0.2,6.8-0.2c2.8,0,6.7,0.2,6.7,0.2v-1c-4-0.4-4.1-1-4.1-5.3V11.3C196.7,11.3,196.9,11.3,200.8,11.3z M279.5,43.3V27.7
	c10.6,0,12-0.2,12.2,3.5h1c-0.1-3.5,0-5.6,0.2-9.2h-1c-0.3,4-1.7,3.7-12.4,3.7c0,0.1,0-14.5,0-14.5c11.5-0.8,12.8,0.7,14.1,4.1
	l0.8-0.2c-0.1-1.1-0.7-4.7-0.7-5.9c-1,0-7.6,0.1-11.3,0.1c-3.6,0-11.2-0.1-11.2-0.1v1c2.3,0.4,3.4,0.5,3.5,5.4v24.1
	c-0.1,4.7-0.5,4.8-3.5,5.2v1c0,0,5-0.2,8.6-0.2c2.2,0,14.9,0.2,14.9,0.2s1.3-4.9,1.8-6.7l-1-0.4C293.9,43.6,289.7,44,279.5,43.3z
	 M340.7,1.5v1.1c4.7,0.8,5.3,0.8,5.5,7.5c0,0,0,19.3,0,19.1c-0.1,7.3-1.7,8.8-1.7,8.8s-2.8,5.2-9.5,5.2c-7.5,0-10.2-5.2-10.2-5.2
	s-1.8-1.7-1.8-9.2V10.1c0-7.3,2.4-6.8,4.4-7.4V1.5c0,0-4.3,0.2-7.3,0.2c-3.1,0-7.4-0.2-7.4-0.2v1.1c3.1,0.5,4,0.8,4,7.5v18.8
	c0,8.9,2.4,11.3,2.4,11.3s4,6.2,13.4,6.2c8.9,0,13-4.9,13-4.9s3.8-3.2,3.7-10.6V9.9c-0.1-6.3,1.6-6.7,4.4-7.3c0,0.1,0-1.1,0-1.1
	s-2.7,0.2-5.9,0.2C343.3,1.7,340.7,1.5,340.7,1.5z M383.2,9.3v0.9c3.5,0.4,4.4,1.1,4.4,5.3v22.2l-25-28.4c0,0-1,0.1-3.5,0.1
	c-2.4,0-4.6-0.1-4.6-0.1v0.9c2.6,0.7,5.3,1.3,5.3,5.3v23.9c0,3.4-0.6,4.9-4.1,5.5v0.9c0,0,2.9-0.2,5.2-0.2c2.5,0,5.5,0.2,5.5,0.2
	v-0.9c-3.7-0.6-4.1-2-4.1-5.5V16.7l26,29.6l1.9,0.2V15.4c0-4.1,0.8-4.3,3.7-5.2V9.3c0,0-2.7,0.2-5.2,0.2
	C386.2,9.4,383.2,9.3,383.2,9.3z M608,9.4c-2.3,0-4.8-0.1-4.8-0.1v0.8c3.6,0.5,3.1,1.6,2.2,3.5l-7.3,12.5l-7.7-12.6
	c-1.6-2.5-0.2-2.6,2-3.3v-1c0,0-3.5,0.1-6.1,0.1c-2.5,0-5.8-0.1-5.8-0.1v1c2.1,0.5,1.9,0.5,4.1,3.4l9.3,14.5l-0.1,11.3
	c-0.1,4.9-0.5,4.7-3.9,5.3v0.9c0,0,3.9-0.2,6.7-0.2c2.8,0,6.5,0.2,6.5,0.2v-0.9c-2.9-0.7-4.2-0.5-4.2-5.4l-0.1-11.3l9.4-14.6
	c1.6-2.3,1.6-2.9,4-3.4V9.3C612.3,9.3,610.1,9.4,608,9.4z M106.2,10v-1c0,0-3.1,0.1-5.4,0.1c-2.3,0-5-0.1-5-0.1v1
	c3.7,0.3,4.3,0.8,3.6,3.4l-9,25.1L79.9,13.5c-0.7-2.1,0.4-3.1,3.1-3.4v-1c0,0-3.5,0.1-6.4,0.1c-2.9,0-6.4-0.1-6.4-0.1v1
	c2.9,0.7,3.1,0.8,4.4,3.4l3.7,9.2l-6.7,15.9l-10-25.1c-0.7-2.2,0.1-3.2,3.1-3.5v-1c0,0-3.5,0.1-6.5,0.1c-2.8,0-6.1-0.1-6.2-0.1
	c0,0,0,0.2,0,1c3.1,0.8,3.4,1.2,4.3,3.4l13.4,33h1l8.8-20.9l8.7,20.9h1.3l12.7-33C103.1,11.4,103.6,10.3,106.2,10z M253,9.4
	c-2.8,0-15.2-0.2-15.2-0.2l-0.6,6.8h0.9c1.1-4.1,2.3-4.8,8.1-4.8h4.1v28.2c0,4.3-0.1,5-4.1,5.3v1c0,0,4-0.2,6.8-0.2
	c2.8,0,6.7,0.2,6.7,0.2v-1c-4-0.4-4.1-1-4.1-5.3V11.3c0,0,0.1,0,4.1,0c5.8,0,7.1,0.7,8,4.8h1l-0.3-6.8C268.4,9.3,255.8,9.4,253,9.4z
	 M534.8,9.3c0,0,0,0,0,1c3.5,0.5,3.4,0.5,3.4,10.9v12.7c0,10.4,0.1,10.4-3.4,11c0,1,0,1,0,1s3.4-0.2,6-0.2c2.6,0,6,0.2,6,0.2
	s0,0,0-1c-3.5-0.6-3.5-0.6-3.5-11V21.1c0-10.4,0-10.4,3.5-10.9c0-1,0-1,0-1s-3.4,0.1-6,0.1C538.3,9.4,534.8,9.3,534.8,9.3z
	 M455.9,43.5V27.9c10.6,0,12-0.2,12.2,3.5h1c-0.1-3.5,0-5.6,0.2-9.2h-1c-0.3,4-1.7,3.7-12.4,3.7c0,0.1,0-14.5,0-14.5
	c11.5-0.8,12.8,0.7,14.1,4.1l0.8-0.2c-0.1-1.1-0.7-4.7-0.7-5.9c-1,0-7.6,0.1-11.3,0.1c-3.6,0-11.2-0.1-11.2-0.1v0.1
	c-0.4,0-2.7,0.1-4.7,0.1c-1.7,0-6.2-0.1-6.2-0.1v0.8c2.9,0.8,2.7,1.7,2.3,3.2l-9.4,25.2l-9.7-23.2c-1.7-4-0.7-4.8,2.2-5.2V9.3
	c0,0-5.4,0.2-6.7,0.2c-1.2,0-5.3-0.1-5.9-0.1c0-0.1,0-0.1,0-0.1s-3.4,0.1-6,0.1c-2.6,0-6-0.1-6-0.1s0,0,0,1
	c3.5,0.5,3.4,0.5,3.4,10.9v12.7c0,10.4,0.1,10.4-3.4,11c0,1,0,1,0,1s3.4-0.2,6-0.2c2.6,0,6,0.2,6,0.2s0,0,0-1
	c-3.5-0.6-3.5-0.6-3.5-11V21.1c0-10.4,0-10.4,3.5-10.9v-0.1c3.1,0.4,3.1,1.6,4.9,5.4c1,2,13,31.1,13,31.1h1.1l13-31.2
	c1.7-4.5,2.5-5.3,5.9-5.3v0.1c2.8,0.1,3.4,0.5,3.5,5.4v24.1c-0.1,4.7-0.5,4.8-3.5,5.2v1c0,0,5-0.2,8.6-0.2c2.2,0,14.9,0.2,14.9,0.2
	s1.3-4.9,1.8-6.7l-1-0.4C470.3,43.8,466,44.2,455.9,43.5z M564.2,9.4c-2.8,0-15.2-0.2-15.2-0.2l-0.6,6.8h0.9
	c1.1-4.1,2.3-4.8,8.1-4.8h4.1v28.2c0,4.3-0.1,5-4.1,5.3v1c0,0,4-0.2,6.8-0.2c2.8,0,6.7,0.2,6.7,0.2v-1c-4-0.4-4.1-1-4.1-5.3V11.3
	c0,0,0.1,0,4.1,0c5.8,0,7.1,0.7,8,4.8h1l-0.3-6.8C579.6,9.3,566.9,9.4,564.2,9.4z M512.2,17.2c0.1-6.5,7.9-8.2,13.7-5
	c1.4,0.7,2,4.3,2,4.3h1.1l-0.3-6.4c0,0-4.6-1.4-8.3-1.4c-7.1,0-12.5,5-12.5,10.3c0,11.9,18.4,8.6,18.4,17.8c0,7.4-9.8,10.2-16.2,5.2
	c-1.3-1-1.5-3.2-1.8-4.5c-1.1,0-1.1,0-1.1,0l0.4,6.8c0,0,4.9,2.1,9.9,2.1c8.8-0.1,13.3-6,13.3-11.5
	C530.8,22.9,512.2,26.2,512.2,17.2z M36,8.6c-10.4,0-19.2,8.2-19.2,18.8c0,10.8,8.8,18.9,19.2,18.9c10.3,0,19.1-8.1,19.2-18.9
	C55.2,16.8,46.3,8.6,36,8.6z M36,44.5c-7,0-13.3-5.2-13.3-17.1c0-11.8,6.4-17,13.3-17c6.9,0,13.3,5.2,13.3,17
	C49.3,39.4,42.9,44.5,36,44.5z M130.9,41.5L118.4,9.1c0,0-2,0.1-4.4,0.1c-2.3,0-4.6-0.1-4.6-0.1V10c2.8,0.7,5.2,0.8,4.3,3.5
	l-12,28.1c-1.1,2.6-1.4,2.6-3.5,3.4c0,1.1,0.1,0.9,0.1,0.9s2.6-0.2,4.9-0.2c2.3,0,4.9,0.2,4.9,0.2v-1c-1.9-0.3-4.3-0.4-3.1-3.4
	l4.3-10.8h12.1l3.9,10.8c1.1,2.9-0.4,3-2.6,3.4v1c0,0,3.5-0.2,6.4-0.2c2.9,0,6.3,0.2,6.3,0.2v-1C133.5,44.6,132,44.2,130.9,41.5z
	 M110.2,28l5.3-13.5l4.8,13.5H110.2z M237.7,41.7L225.2,9.3c0,0-2,0.1-4.4,0.1c-2.3,0-4.6-0.1-4.6-0.1v0.9c2.8,0.7,5.2,0.8,4.3,3.5
	l-12,28.1c-1.1,2.6-1.4,2.6-3.5,3.4c0,1.1,0.1,0.9,0.1,0.9s2.6-0.2,4.9-0.2c2.3,0,4.9,0.2,4.9,0.2v-1c-1.9-0.3-4.3-0.4-3.1-3.4
	l4.3-10.8h12.1l3.9,10.8c1.1,2.9-0.4,3-2.6,3.4v1c0,0,3.5-0.2,6.4-0.2S242,46,242,46v-1C240.3,44.8,238.8,44.4,237.7,41.7z
	 M217,28.2l5.3-13.5l4.8,13.5H217z M500.2,38.2c-1.5-2.4-5.5-8.7-8.1-10.8c2.3-1,8.4-1.8,8.4-8.6c0-7.1-7.1-9.5-13.3-9.6
	c-2.6,0-6.2,0.4-8,0.4c-1.4,0-4.6-0.1-4.6-0.1v0.8c2.4,0.3,3.5,1.1,3.5,5.1v23.9c0,4.6-1,5.4-3.5,5.7v0.8c0,0,4-0.1,5.9-0.1
	c3.4,0.1,6.2,0.1,6.2,0.1v-0.8c-2.7-0.5-3.2-0.7-3.5-5.7c0,0.1,0-11,0-11c4-0.4,6.7,2.7,9.5,7.1c1.9,2.9,4.4,7.6,6.9,10.3
	c0.8,0,3-0.1,4.1-0.1c1.2,0,3.4,0.1,3.4,0.1v-0.8C503.9,44.6,504,44.2,500.2,38.2z M483.3,26.7V11.9c3.8-1.6,11.6-1.1,11.8,7
	C495.2,27.2,486.7,27.5,483.3,26.7z"/>
</svg>
